<svg id="visual" viewBox="0 0 900 600" width="900" height="600" xmlns="http://www.w3.org/2000/svg" xmlns:xlink="http://www.w3.org/1999/xlink" version="1.1"><rect x="0" y="0" width="900" height="600" fill="#fff"></rect><defs><linearGradient id="grad1_0" x1="33.3%" y1="0%" x2="100%" y2="100%"><stop offset="20%" stop-color="#ffffff" stop-opacity="1"></stop><stop offset="80%" stop-color="#ffffff" stop-opacity="1"></stop></linearGradient></defs><defs><linearGradient id="grad2_0" x1="0%" y1="0%" x2="66.7%" y2="100%"><stop offset="20%" stop-color="#ffffff" stop-opacity="1"></stop><stop offset="80%" stop-color="#ffffff" stop-opacity="1"></stop></linearGradient></defs><g transform="translate(900, 0)"><path d="M0 405.6C-19.4 386.8 -38.7 368 -55.5 350.6C-72.3 333.3 -86.5 317.4 -98.6 303.4C-110.6 289.4 -120.5 277.2 -140.7 276.2C-161 275.2 -191.5 285.5 -193.4 266.2C-195.2 246.9 -168.4 198 -197.3 197.3C-226.2 196.6 -310.8 244 -328.2 238.4C-345.6 232.9 -295.8 174.4 -279.8 142.6C-263.8 110.7 -281.6 105.4 -291 94.6C-300.4 83.7 -301.3 67.2 -319 50.5C-336.7 33.8 -371.2 16.9 -405.6 0L0 0Z" fill="#9f7be8"></path></g><g transform="translate(0, 600)"><path d="M0 -405.6C9.8 -331.9 19.6 -258.2 41.3 -260.7C63 -263.3 96.7 -342.1 115.9 -356.6C135.1 -371.2 139.8 -321.5 156.2 -306.5C172.5 -291.5 200.5 -311.2 230.4 -317.1C260.4 -323.1 292.4 -315.2 278.6 -278.6C264.8 -242 205.3 -176.6 225.7 -164C246.1 -151.4 346.3 -191.6 361.4 -184.1C376.5 -176.7 306.5 -121.4 285.3 -92.7C264.1 -64 291.8 -61.7 320 -50.7C348.2 -39.6 376.9 -19.8 405.6 0L0 0Z" fill="#9f7be8"></path></g></svg>